<svg xmlns="http://www.w3.org/2000/svg" viewBox="0 0 320 320" role="img" aria-label="SteerWill">
  <rect width="320" height="320" rx="64" fill="#ffffff"/>
  <g transform="translate(160 150)">
    <circle r="92" fill="none" stroke="#0b1930" stroke-width="28"/>
    <path d="M-18-18 L-70-45 M18-18 L70-45 M0 22 L0 78" stroke="#0b1930" stroke-width="26" stroke-linecap="round"/>
    <circle r="26" fill="#ffffff" stroke="#0b1930" stroke-width="18"/>
    <circle r="9" fill="#1168ff"/>
    <g fill="#1168ff" stroke="#ffffff" stroke-width="7" stroke-linejoin="round">
      <g transform="translate(-66 -66) rotate(-45)">
        <path d="M-24 12 Q-24-10-3-10 H19 Q29-10 29 0 Q29 10 19 10 H6 V18 H26 Q36 18 36 28 Q36 38 26 38 H0 Q-24 38-24 12Z"/>
      </g>
      <g transform="translate(66 -66) rotate(45)">
        <path d="M24 12 Q24-10 3-10 H-19 Q-29-10-29 0 Q-29 10-19 10 H-6 V18 H-26 Q-36 18-36 28 Q-36 38-26 38 H0 Q24 38 24 12Z"/>
      </g>
      <g transform="translate(-66 66) rotate(45)">
        <path d="M-24-12 Q-24 10-3 10 H19 Q29 10 29 0 Q29-10 19-10 H6 V-18 H26 Q36-18 36-28 Q36-38 26-38 H0 Q-24-38-24-12Z"/>
      </g>
      <g transform="translate(66 66) rotate(-45)">
        <path d="M24-12 Q24 10 3 10 H-19 Q-29 10-29 0 Q-29-10-19-10 H-6 V-18 H-26 Q-36-18-36-28 Q-36-38-26-38 H0 Q24-38 24-12Z"/>
      </g>
    </g>
  </g>
</svg>